<?xml version="1.0" standalone="no"?>
<!DOCTYPE svg PUBLIC "-//W3C//DTD SVG 20010904//EN"
 "http://www.w3.org/TR/2001/REC-SVG-20010904/DTD/svg10.dtd">
<svg version="1.0" xmlns="http://www.w3.org/2000/svg"
 width="512.000000pt" height="512.000000pt" viewBox="0 0 512.000000 512.000000"
 preserveAspectRatio="xMidYMid meet">
<metadata>
Created by potrace 1.16, written by Peter Selinger 2001-2019
</metadata>
<g transform="translate(0.000000,512.000000) scale(0.100000,-0.100000)"
fill="#000000" stroke="none">
<path d="M2375 5092 c-238 -81 -385 -288 -385 -542 0 -157 56 -295 166 -404
221 -222 587 -222 808 0 110 109 166 247 166 404 0 256 -153 469 -393 545
-113 36 -251 35 -362 -3z"/>
<path d="M2414 3116 c-180 -51 -317 -174 -390 -351 -27 -65 -29 -79 -29 -205
0 -126 2 -140 30 -207 61 -151 177 -267 328 -328 67 -28 81 -30 207 -30 126 0
140 2 207 30 151 61 267 177 328 328 28 67 30 81 30 207 0 126 -2 140 -30 207
-61 151 -178 268 -328 327 -61 25 -89 30 -187 33 -79 2 -131 -2 -166 -11z"/>
<path d="M2416 1124 c-191 -46 -360 -214 -411 -410 -19 -75 -19 -213 0 -289
23 -86 70 -175 126 -238 224 -251 634 -251 858 0 56 63 103 152 126 238 19 76
19 214 0 289 -52 198 -220 365 -416 411 -79 18 -205 18 -283 -1z"/>
</g>
</svg>
